<?xml version="1.0" standalone="no"?>
<!DOCTYPE svg PUBLIC "-//W3C//DTD SVG 20010904//EN"
 "http://www.w3.org/TR/2001/REC-SVG-20010904/DTD/svg10.dtd">
<svg version="1.0" xmlns="http://www.w3.org/2000/svg"
 width="512.000000pt" height="512.000000pt" viewBox="0 0 512.000000 512.000000"
 preserveAspectRatio="xMidYMid meet">
<metadata>
Created by potrace 1.11, written by Peter Selinger 2001-2013
</metadata>
<g transform="translate(0.000000,512.000000) scale(0.100000,-0.100000)"
fill="#000000" stroke="none">
<path d="M143 4919 c1 -33 -2 -59 -6 -59 -5 0 -5 -5 -1 -11 9 -16 11 -229 1
-229 -5 0 -5 -5 -1 -11 10 -16 11 -229 1 -229 -5 0 -5 -5 -1 -12 4 -6 7 -32 7
-57 -1 -41 13 -81 28 -81 9 0 469 -463 469 -472 0 -5 4 -8 9 -8 10 0 464 -455
469 -470 2 -5 7 -10 11 -10 4 0 167 -160 363 -356 l355 -356 -338 -338 c-261
-261 -339 -334 -345 -321 -4 9 -8 36 -10 61 -9 142 -125 240 -274 231 -43 -2
-118 -37 -145 -66 -37 -41 -55 -65 -48 -65 4 0 2 -5 -5 -12 -7 -7 -12 -22 -12
-35 0 -13 -3 -23 -7 -23 -7 0 -7 -45 0 -95 15 -104 119 -190 239 -198 50 -3
56 -7 156 -110 l44 -44 -27 -29 c-15 -16 -46 -51 -69 -77 -22 -27 -51 -61 -64
-75 -12 -15 -26 -32 -31 -37 -4 -6 -28 -33 -52 -61 -69 -79 -140 -163 -163
-192 -11 -15 -27 -32 -36 -39 -8 -7 -12 -13 -7 -13 4 0 -10 -18 -30 -39 -21
-21 -51 -55 -66 -75 l-29 -36 -50 49 c-27 27 -63 51 -79 55 -35 7 -109 -20
-109 -40 0 -8 -5 -14 -11 -14 -5 0 -8 -4 -4 -9 3 -5 1 -12 -4 -16 -16 -9 11
-105 30 -105 25 0 4 -18 -34 -30 -23 -7 -54 -21 -69 -32 -16 -11 -28 -16 -28
-12 0 23 -108 -110 -134 -166 -28 -59 -31 -74 -31 -160 1 -85 4 -102 32 -162
18 -38 37 -68 42 -68 6 0 11 -6 11 -12 0 -21 70 -76 137 -110 52 -25 77 -31
145 -34 91 -3 189 21 227 57 11 11 23 19 27 19 23 0 115 121 129 170 1 3 7 17
13 33 10 24 14 26 32 15 11 -7 20 -15 20 -19 0 -3 20 -6 44 -8 39 -2 49 3 79
32 33 34 34 36 28 113 -1 6 -21 31 -46 56 -25 25 -45 48 -45 52 0 7 49 56 56
56 3 0 21 16 40 36 19 20 34 34 34 31 0 -4 17 9 38 28 20 19 87 76 147 126 61
50 132 111 158 135 26 24 50 44 53 44 6 0 42 33 101 92 l32 32 96 -95 c95 -94
95 -95 99 -150 2 -30 14 -75 25 -98 22 -42 86 -112 99 -109 4 1 18 -4 31 -11
29 -16 151 -23 151 -9 0 5 5 6 11 3 5 -4 28 5 50 19 21 14 42 27 46 28 16 5
72 101 61 104 -2 0 2 7 9 15 10 13 11 111 1 149 -16 60 -139 176 -162 153 -3
-4 -6 -1 -6 4 0 6 -8 10 -17 8 -10 -1 -26 2 -35 7 -12 5 -18 5 -18 -1 0 -16
-52 7 -78 35 -13 13 -18 24 -13 24 6 0 25 16 43 36 58 64 307 309 318 312 5 2
10 7 10 12 0 12 288 295 300 295 6 0 158 -148 339 -329 301 -300 350 -356 310
-356 -5 0 -9 -7 -9 -17 0 -9 -3 -14 -6 -10 -3 3 -17 2 -31 -4 -16 -6 -22 -6
-18 1 4 7 -2 7 -18 1 -14 -6 -27 -8 -30 -5 -2 2 -25 -5 -51 -16 -52 -22 -106
-72 -133 -122 -22 -42 -25 -177 -4 -201 7 -10 10 -17 7 -17 -4 0 -1 -6 6 -13
7 -8 24 -28 36 -45 56 -73 188 -100 282 -56 87 40 136 111 147 213 6 60 6 60
99 152 l94 91 41 -38 c91 -85 101 -94 109 -94 5 0 10 -4 12 -8 2 -7 185 -166
253 -221 60 -48 144 -121 179 -154 22 -20 43 -37 47 -37 4 0 10 -7 13 -15 4
-10 -10 -33 -39 -63 -25 -26 -45 -51 -46 -57 0 -5 -2 -21 -4 -35 -8 -72 82
-135 147 -102 15 7 30 17 33 23 9 14 25 11 25 -6 0 -36 56 -131 105 -180 86
-84 174 -116 300 -111 71 3 151 28 171 52 6 8 13 11 16 9 12 -12 110 101 140
162 29 59 32 75 33 157 0 74 -5 102 -25 154 -13 34 -28 62 -32 62 -5 0 -8 5
-8 11 0 26 -122 128 -162 136 -16 3 -28 9 -28 14 0 5 -3 8 -7 8 -5 -1 -16 -1
-26 0 -17 1 -17 2 0 34 10 17 20 34 23 37 5 5 5 34 0 55 -1 6 -2 13 -2 16 2
17 -57 59 -88 62 -48 6 -68 -3 -121 -56 l-45 -46 -32 35 c-18 19 -32 39 -32
44 0 4 -4 10 -9 12 -4 2 -57 62 -116 133 -60 72 -111 132 -115 135 -6 5 -154
180 -180 213 -8 11 -33 37 -54 58 l-39 39 76 78 c74 75 78 78 127 79 56 3 121
28 161 65 33 29 69 92 69 118 0 11 3 20 8 20 19 0 0 111 -30 169 -30 59 -123
120 -182 122 -66 2 -89 -2 -131 -20 -89 -39 -145 -119 -150 -214 -4 -68 -3
-67 -14 -67 -12 0 -671 658 -671 669 0 10 235 244 250 249 5 2 10 7 10 11 0
10 775 784 789 789 6 2 11 7 11 11 0 9 591 601 599 601 4 0 14 12 23 28 14 23
16 73 16 378 l0 351 -356 0 -356 0 -849 -848 c-466 -467 -852 -849 -857 -849
-5 0 -391 382 -858 849 l-848 848 -356 0 -357 0 2 -58z"/>
</g>
</svg>
